<?xml version="1.0" encoding="UTF-8"?>
<svg id="Layer_1" data-name="Layer 1" xmlns="http://www.w3.org/2000/svg" viewBox="0 0 1781.17 763.06">
  <defs>
    <style>
      .cls-1 {
        fill: #000;
      }

      .cls-2 {
        fill: #61afd5;
        stroke: #abd8e8;
        stroke-linecap: round;
        stroke-linejoin: round;
        stroke-width: 15px;
      }
    </style>
  </defs>
  <path class="cls-2" d="M1449.55,212.5l9.72,32.55,18.89,4.77,115.59-142.1-12.9,128,11.87,6.57,120.58-74.46-49.34,144.13,15.43,26.84,70.38,5.79-81.7,89.82,105.6,60.03-89.73,34.87-11.54,21.7,23.23,123.9-89.38-52.42-15.04,7.82-23.39,114.63-92.63-86.66-20.84-1.78-38.28,16.87,50,73.51-109.98-45.79-29.7,43.56-20.39-78.21-50-35.69-58.31,19.85-137.83,104.97,13.33-155.43-79.44,54.42-59.4-48.51-15.84,38.61-87.12,89.1-25.74-93.06-55.88,61.82-62.92-38.72-62.48,75.68-88.88-34.32-28.16-68.64-62.04,77-8.19-92.88-15.1-10.36-81.87,26.91-49.88,29.33-17.65-17.04-74.64,33.43,12.94-50.86-11.5-10.11-149.34,68.36s15.91-48.35,23.29-69.92c1.33-3.88,3.52-11.77,3.52-11.77l-5.03-19.76L7.5,509.64l59.54,10.92,22.34-11.15,23.33-51.96-6.68-31.89-85.49-87.49,99.95,13.91,10.66-14.19-34.97-81.15,39.34-11.64,27.99-34.26,11.34-137.96,82.92,120.91,14.49,6.16,13.7-33.21,35.37,61.63,23.78,18.59,116.65-18.35,20.1-17.38L631.88,7.5l-39.76,159.13,6.62,37.27,21.49,48.59,16.92,7.11s92.58-51.88,94.23-51.22,46.2,69.78,46.2,69.78l10.89-172.08,55.11,110.23,45.87-30.03,18.15,34.65,190.42-137.29-77.66,134.87,45.32,31.68s20.24-62.92,22-62.04,34.76,97.68,34.76,97.68l107.83-108.56,47.96.44,16.35,27.88,60.21,1.6,99.6-73.05-52.57,96.83-1.96,10.67,49.69-29.12Z"/>
  <g>
    <path class="cls-1" d="M378.16,385.43c1.86,14.25,2.79,28.07,2.79,41.46s-.74,25.66-2.23,37.56-3.35,23.8-5.58,35.7c-2.48,12.15-8.55,23.61-18.22,34.4-9.67,10.78-24.17,20.02-43.51,27.7-15.62,6.2-33.03,10.04-52.24,11.53-19.21,1.49-39.48,2.48-60.8,2.97-.25-5.7-.5-12.95-.74-21.75-.25-8.8-.43-18.72-.56-29.75-.12-11.03-.19-22.87-.19-35.51v-39.42c0-16.86.06-33.9.19-51.13.12-17.23.25-33.53.37-48.9.12-15.37.25-29.31.37-41.83.12-12.52.19-22.62.19-30.3,18.59.25,36.75,1.43,54.48,3.53,17.72,2.11,34.15,5.52,49.27,10.23s28.45,11.03,39.97,18.96c11.53,7.93,20.39,17.85,26.59,29.75,4.71,15.62,7.99,30.55,9.85,44.81ZM278.51,501.63c3.84-.74,7.44-1.86,10.78-3.35,3.35-1.49,6.38-3.66,9.11-6.51,2.73-2.85,4.96-7.13,6.69-12.83,2.73-9.17,4.59-18.53,5.58-28.07.99-9.54,1.61-20.89,1.86-34.02.25-10.91-.43-21.13-2.04-30.68s-6.26-17.17-13.94-22.87c-3.97-2.73-8.06-4.77-12.27-6.14-4.21-1.36-9.67-2.17-16.36-2.42l-1.86,149.48c4.46-.99,8.61-1.86,12.46-2.6Z"/>
    <path class="cls-1" d="M571.11,385.8c.12,12.02.19,24.85.19,38.49v41.65c0,14.38.06,28.38.19,42.02s.37,26.52.74,38.67.81,22.68,1.3,31.61l-60.61.74-2.98-24.54c-9.67,4.96-19.77,9.67-30.3,14.13-10.54,4.46-20.51,6.69-29.93,6.69s-16.73-2.48-22.68-7.44c-3.22-2.73-5.83-5.02-7.81-6.88-1.98-1.86-3.59-3.72-4.83-5.58s-2.42-3.9-3.53-6.14c-1.12-2.23-2.54-5.21-4.28-8.92-3.72-15.12-5.95-29.93-6.69-44.44s-1.36-29.69-1.86-45.55c-.5-14.63-.99-30.43-1.49-47.41-.5-16.98-.99-32.91-1.49-47.78l67.3,2.23c.5,24.05,1.12,45.74,1.86,65.07.25,8.18.5,16.3.74,24.36s.5,15.37.74,21.94c.25,6.57.43,11.96.56,16.18.12,4.21.31,6.69.56,7.44.5,2.73.99,5.39,1.49,7.99.5,2.6,1.43,4.9,2.79,6.88,1.36,1.98,3.16,3.53,5.39,4.65,2.23,1.12,5.33,1.67,9.3,1.67s7.19-.56,9.67-1.67c2.48-1.12,4.4-2.79,5.76-5.02,1.36-2.23,2.29-5.02,2.79-8.37s.87-7.38,1.12-12.08c0-4.96.06-10.6.19-16.92s.19-12.95.19-19.89v-42.76c0-16.11-.12-32.85-.37-50.2,4.46-.25,9.42-.62,14.87-1.12,4.71-.25,10.1-.5,16.17-.74,6.07-.25,12.46-.37,19.15-.37,2.73,0,5.27.06,7.62.19s4.9.19,7.62.19c.25,8.68.43,19.03.56,31.05Z"/>
    <path class="cls-1" d="M604.53,409.78c-4.46,0-10.16-.25-17.1-.74-.25-2.73-.37-5.08-.37-7.07v-5.95c0-4.96.12-8.86.37-11.71.25-2.85.37-6.88.37-12.08,0-1.98-.06-4.15-.19-6.51s-.19-5.02-.19-7.99c5.95,0,11.28-.12,15.99-.37,4.21-.25,7.99-.56,11.34-.93,3.35-.37,5.02-.81,5.02-1.3,0-1.98-.06-6.38-.19-13.2-.12-6.82-.19-13.94-.19-21.38v-28.63l55.4,1.49,3.35,62.1c4.46.25,9.11.43,13.94.56s9.36.31,13.57.56c4.21.25,7.81.37,10.78.37h6.32c0,4.96.12,10.29.37,15.99.25,4.96.5,10.66.74,17.1.25,6.45.62,13.14,1.12,20.08h-43.88l4.46,92.22c.25,4.46.93,7.87,2.05,10.23,1.12,2.35,2.6,4.09,4.46,5.21,1.86,1.12,3.97,1.86,6.32,2.23,2.35.37,5.02.68,7.99.93,2.97.25,5.02.5,6.14.74,1.12.25,2.48.37,4.09.37s3.84-.06,6.69-.19,7.38-.31,13.57-.56l2.97,56.15c-16.11,1.49-30,2.23-41.65,2.23-13.39,0-24.23-.56-32.54-1.67-8.3-1.12-13.82-2.29-16.55-3.53-3.47-1.24-6.57-3.41-9.3-6.51-2.73-3.1-5.14-6.57-7.25-10.41-2.11-3.84-3.78-7.81-5.02-11.9s-1.98-7.75-2.23-10.97c-.99-10.41-1.8-22.56-2.42-36.44-.62-13.88-1.18-27.21-1.67-39.97-.5-12.77-.93-23.74-1.3-32.91-.37-9.17-.81-14.13-1.3-14.87-4.96-.5-9.67-.74-14.13-.74Z"/>
    <path class="cls-1" d="M809.78,485.08c.74,7.56,2.85,14.69,6.32,21.38,4.46,3.72,8.61,6.32,12.46,7.81,3.84,1.49,7.5,2.48,10.97,2.97,3.47.5,6.75.74,9.85.74s6.14.12,9.11.37h21.94c-.5,11.9-.68,22.37-.56,31.42.12,9.05-.43,18.16-1.67,27.33-2.23-.25-4.46-.37-6.69-.37h-6.32c-2.97,0-5.89.06-8.74.19s-5.64.19-8.37.19c-5.7,0-11.28-.37-16.73-1.12-4.46-.5-8.3-.81-11.53-.93s-6.2-.37-8.92-.74c-2.73-.37-5.45-.81-8.18-1.3-2.73-.5-5.7-1.36-8.92-2.6-6.45-2.23-12.39-4.9-17.85-7.99s-10.23-6.94-14.32-11.53c-4.09-4.59-7.56-10.04-10.41-16.36s-4.9-13.82-6.13-22.5c-1.49-10.66-2.54-21.94-3.16-33.84s-.93-22.19-.93-30.86c0-9.17.62-18.9,1.86-29.19s4.34-19.89,9.3-28.82c3.22-5.95,7.93-11.16,14.13-15.62s13.57-8.24,22.12-11.34c8.55-3.1,17.97-5.39,28.26-6.88,10.29-1.49,21.26-2.23,32.91-2.23,7.68,0,15.62.37,23.8,1.12l.74,29.38v29.75c-6.45.25-12.64.31-18.59.19s-11.59-.06-16.92.19c-5.33.25-10.35.87-15.06,1.86s-8.92,2.73-12.64,5.21c-1.98,2.97-3.35,6.32-4.09,10.04-.74,3.72-1.05,7.5-.93,11.34.12,3.84.43,7.68.93,11.53.5,3.84.87,7.25,1.12,10.23.5,6.45,1.12,13.45,1.86,21.01Z"/>
    <path class="cls-1" d="M1059.4,367.58c3.22,3.84,5.64,8.3,7.25,13.39s2.6,10.6,2.97,16.55c.37,5.95.56,11.77.56,17.48v46.48c0,4.21-.06,8.37-.19,12.46s-.19,8.12-.19,12.08l-.37,88.5h-20.08c-4.71,0-9.11.06-13.2.19-4.09.12-8.61.19-13.57.19h-20.82v-79.2c0-7.93-.06-15.37-.19-22.31-.12-6.94-.25-13.26-.37-18.96-.12-5.7-.31-10.41-.56-14.13-.25-4.21-1.55-7.19-3.9-8.92-2.35-1.73-5.27-2.6-8.74-2.6h-2.6c-.74,0-1.49.12-2.23.37-4.71.74-8.61,3.04-11.71,6.88-3.1,3.84-4.65,7.5-4.65,10.97-.25.99-.43,2.97-.56,5.95-.12,2.97-.19,6.32-.19,10.04s.06,7.62.19,11.71c.12,4.09.19,7.62.19,10.6v17.1c0,7.44-.06,15.56-.19,24.36-.12,8.8-.19,17.54-.19,26.21v21.94h-68.42c0-20.58-.06-40.22-.19-58.94-.12-18.72-.19-37-.19-54.85,0-30.74.06-60.36.19-88.87s.43-57.39.93-86.64c8.18-.74,14.56-1.49,19.15-2.23s8.86-1.36,12.83-1.86c3.97-.5,8.3-.87,13.01-1.12,4.71-.25,11.28-.5,19.71-.74.25,5.45.43,12.33.56,20.64.12,8.3.19,17.17.19,26.59v53.55c8.18-6.45,17.66-12.08,28.45-16.92s22.12-7.25,34.02-7.25c3.47,0,6.82.19,10.04.56,3.22.37,6.57,1.18,10.04,2.42,5.45,1.74,9.79,4.52,13.01,8.37Z"/>
  </g>
  <g>
    <path class="cls-1" d="M1236.29,582.5h-6.69c-16.86,0-30.55-2.04-41.09-6.14s-18.9-10.04-25.1-17.85c-6.2-7.81-10.72-17.54-13.57-29.19-2.85-11.65-5.02-24.91-6.51-39.79-.74-6.69-1.43-13.82-2.04-21.38-.62-7.56-1.18-15.06-1.67-22.5-.5-7.44-.93-14.63-1.3-21.57-.37-6.94-.56-13.01-.56-18.22,0-9.17.37-18.84,1.12-29,.74-10.16,1.61-20.82,2.6-31.98,1.24-13.39,4.4-24.73,9.48-34.02,5.08-9.3,13.32-16.42,24.73-21.38,6.45-2.73,15.43-5.27,26.96-7.62,11.53-2.35,23.86-3.53,37-3.53,10.91,0,21.57,1.05,31.98,3.16,10.41,2.11,19.58,5.76,27.52,10.97,10.66,6.94,18.65,15.49,23.98,25.66,5.33,10.16,8.24,20.45,8.74,30.86.5,9.42.99,21.38,1.49,35.88.5,14.5.74,29.93.74,46.29,0,3.72-.06,7.5-.19,11.34s-.19,7.62-.19,11.34c-.25,10.41-.56,20.39-.93,29.93-.37,9.54-1.12,18.47-2.23,26.77-1.12,8.3-2.73,15.74-4.83,22.31-2.11,6.57-4.9,11.84-8.37,15.8-2.73,3.22-5.45,6.32-8.18,9.3s-5.89,5.83-9.48,8.55c-3.59,2.73-7.87,5.27-12.83,7.62s-10.78,4.52-17.48,6.51l-25.29,1.49c-2.73.25-5.33.37-7.81.37ZM1260.09,452.54c.25-10.54.37-20.82.37-30.86s-.25-20.14-.74-30.31c-.5-10.16-1.36-21.07-2.6-32.72-.99-8.18-3.72-13.51-8.18-15.99-4.46-2.48-9.54-3.47-15.25-2.98-5.21,1.49-9.92,3.84-14.13,7.06s-6.69,7.69-7.44,13.39c-.25,16.36-.37,29.75-.37,40.16s.25,20.27.74,29.56c.5,9.3,1.18,19.03,2.04,29.19s1.92,23.05,3.16,38.67c.25,3.72,1.18,6.94,2.79,9.67,1.61,2.73,3.53,4.9,5.76,6.51,2.23,1.61,4.71,2.73,7.44,3.35,2.73.62,5.21.56,7.44-.19,3.47-.25,6.38-1.49,8.74-3.72,2.35-2.23,4.21-4.9,5.58-7.99,1.36-3.1,2.35-6.32,2.97-9.67.62-3.35.93-6.26.93-8.74.25-12.4.5-23.86.74-34.4Z"/>
    <path class="cls-1" d="M1416.58,276.1c4.71,5.45,7.06,12.64,7.06,21.57,0,3.72-.5,7.75-1.49,12.08-.99,4.34-2.73,8.99-5.21,13.94-8.92,6.69-17.48,10.47-25.66,11.34s-15.43-.19-21.75-3.16-11.34-7.31-15.06-13.01c-3.72-5.7-5.58-11.78-5.58-18.22,0-10.41,2.97-19.27,8.92-26.59s14.25-10.97,24.91-10.97c6.2,0,11.9.74,17.1,2.23,6.45,1.74,12.02,5.33,16.73,10.78ZM1424.01,380.59c.74,10.91,1.43,23.61,2.04,38.11.62,14.5,1.3,29.93,2.05,46.29.74,16.36,1.36,31.92,1.86,46.67.5,14.75.93,27.7,1.3,38.86.37,11.15.56,18.72.56,22.68-7.44.5-13.51.74-18.22.74h-39.04c-4.21,0-9.42.12-15.62.37-1.24-18.1-2.17-35.08-2.79-50.94-.62-15.87-1.18-31.23-1.67-46.11s-.81-29.69-.93-44.44c-.12-14.75-.19-30.06-.19-45.92v-25.66c9.17-.74,16.3-1.24,21.38-1.49s9.73-.43,13.94-.56c4.21-.12,8.68-.19,13.39-.19h20.08c.5,3.47,1.12,10.66,1.86,21.57Z"/>
    <path class="cls-1" d="M1560.14,533.79c.37,4.21.81,8.92,1.3,14.13.5,5.45,1.05,10.54,1.67,15.25s1.3,8.92,2.04,12.64c-4.21.5-8.18.93-11.9,1.3-3.72.37-8.06.56-13.01.56-5.21,0-10.72-.06-16.55-.19-5.83-.12-12.71-.56-20.64-1.3-8.18-.74-15.37-2.66-21.57-5.76-6.2-3.1-11.4-7.13-15.62-12.08-4.21-4.96-7.5-10.47-9.85-16.55-2.35-6.07-3.66-12.46-3.9-19.15-.5-8.43-.93-17.48-1.3-27.14s-.68-19.4-.93-29.19c-.25-9.79-.5-19.34-.74-28.63s-.43-17.66-.56-25.1c-.12-7.44-.31-13.63-.56-18.59s-.5-8.06-.74-9.3l-2.6-107.46c9.17-.25,15.74-.43,19.71-.56,3.97-.12,7.56-.19,10.78-.19s7.13-.06,11.71-.19,12.08-.56,22.5-1.3c.5,22.06.99,41.77,1.49,59.12.5,17.35.99,34.09,1.49,50.2l1.49,47.97c.5,15.87.99,33.59,1.49,53.17.25,11.4,1.92,19.4,5.02,23.98,3.1,4.59,6.88,7.44,11.34,8.55,4.46,1.12,9.17,1.3,14.13.56s9.3-.99,13.01-.74c.5,6.45.93,11.77,1.3,15.99Z"/>
  </g>
</svg>